<?xml version="1.0" encoding="utf-8"?>
<!-- Generator: Adobe Illustrator 17.1.0, SVG Export Plug-In . SVG Version: 6.00 Build 0)  -->
<!DOCTYPE svg PUBLIC "-//W3C//DTD SVG 1.1//EN" "http://www.w3.org/Graphics/SVG/1.1/DTD/svg11.dtd">
<svg version="1.1" id="Layer_1" xmlns="http://www.w3.org/2000/svg" xmlns:xlink="http://www.w3.org/1999/xlink" x="0px" y="0px"
	 width="1000px" height="1000px" viewBox="0 0 1000 1000" enable-background="new 0 0 1000 1000" xml:space="preserve">
<path d="M835.748,819.315c62.731-62.73,103.652-139.003,122.785-219.407c5.48-23.03-22.826-38.579-39.524-21.798
	c-0.205,0.206-0.41,0.411-0.615,0.616c-139.571,139.571-367.532,136.88-503.694-8.072
	c-128.37-136.657-126.685-348.816,3.673-483.578c1.644-1.699,3.3-3.378,4.97-5.037c16.744-16.635,1.094-44.811-21.869-39.354
	c-79.69,18.938-155.326,59.276-217.75,121.035C1.206,344.296,0.178,637.064,181.479,818.86
	C361.988,999.861,655.051,1000.013,835.748,819.315z"/>
</svg>
