<?xml version="1.0" encoding="utf-8"?>
<!-- Generator: Adobe Illustrator 16.0.0, SVG Export Plug-In . SVG Version: 6.00 Build 0)  -->
<!DOCTYPE svg PUBLIC "-//W3C//DTD SVG 1.1//EN" "http://www.w3.org/Graphics/SVG/1.1/DTD/svg11.dtd">
<svg version="1.1" id="Layer_1" xmlns="http://www.w3.org/2000/svg" xmlns:xlink="http://www.w3.org/1999/xlink" x="0px" y="0px"
	 width="30px" height="17.145px" viewBox="0 0 30 17.145" enable-background="new 0 0 30 17.145" xml:space="preserve">
<g>
	<path d="M30,9.583c0-4.176-4.391-7.562-9.807-7.562c-0.097,0-0.193,0.001-0.289,0.004C22.006,3.693,23.3,5.969,23.3,8.479
		c0,3.569-2.618,6.667-6.454,8.214c1.045,0.292,2.172,0.452,3.348,0.452c2.207,0,4.244-0.563,5.884-1.512l3.557,1.512l-1.386-3.248
		C29.353,12.674,30,11.187,30,9.583z"/>
	<path d="M18.801,2.562C16.812,0.981,14.028,0,10.947,0C4.901,0,0,3.779,0,8.441c0,1.79,0.724,3.449,1.957,4.815L0.41,16.882
		l3.97-1.688c1.83,1.06,4.104,1.688,6.567,1.688c1.829,0,3.552-0.346,5.067-0.957c3.495-1.41,5.881-4.231,5.881-7.483
		C21.896,6.155,20.716,4.081,18.801,2.562z"/>
</g>
</svg>
