<?xml version="1.0" encoding="utf-8"?>
<!-- Generator: Adobe Illustrator 17.0.0, SVG Export Plug-In . SVG Version: 6.00 Build 0)  -->
<!DOCTYPE svg PUBLIC "-//W3C//DTD SVG 1.1//EN" "http://www.w3.org/Graphics/SVG/1.1/DTD/svg11.dtd">
<svg version="1.1" id="Capa_1" xmlns="http://www.w3.org/2000/svg" xmlns:xlink="http://www.w3.org/1999/xlink" x="0px" y="0px"
	 width="200px" height="200px" viewBox="0 0 200 200" enable-background="new 0 0 200 200" xml:space="preserve">
<path fill="#1D1D1B" d="M158.131,6.101c-30.809-10.222-56.635,41.081-67.757,63.796C84.402,45.3,65.472,6.599,38.812,5.165
	C23.717,4.353,18.498,19.728,19.35,31.982c0.917,13.179,6.187,26.098,12.585,37.919c-0.352,0.068-0.696,0.208-0.982,0.442
	c-1.02-0.495-2.447-0.017-2.409,1.419c1.066,39.396-8.977,110.714,42.472,121.813c20.429,4.407,55.3,4.855,71.58-10.718
	c8.826-8.443,10.377-22.491,11.341-33.898c1.841-21.787,1.574-43.795,1.433-65.648C168.027,61.596,195.548,18.515,158.131,6.101z
	 M160.021,56.779c-5.664-4.913-12.16-8.555-19.179-10.782c1.656-0.282,3.336-0.492,5.056-0.602
	c6.788-0.433,11.615,2.38,17.296,4.739C162.217,52.383,161.157,54.597,160.021,56.779z M77.657,57.713
	c-5.644,0.36-11.556,1.311-17.166,2.701c3.577-4.605,8.204-8.032,13.723-10.401C75.428,52.549,76.586,55.112,77.657,57.713z
	 M56.85,21.854c1.847,2.003,3.566,4.214,5.166,6.518c-6.099,1.976-11.701,5.396-16.752,9.478
	c2.524-5.642,6.618-10.587,11.108-14.835C56.731,22.675,56.865,22.262,56.85,21.854z M44.372,13.439
	c4.004,1.134,7.603,3.571,10.837,6.714c-0.284-0.008-0.576,0.039-0.867,0.23c-9.078,5.952-13.84,15.699-17.394,25.62
	c-1.051,2.933,2.954,4.861,4.985,2.902c7.141-6.887,14.238-12.313,23.324-15.529c2.443,4.033,4.557,8.063,6.373,11.468
	c0.247,0.464,0.463,0.943,0.704,1.409c-9.52,2.478-18.025,8.829-21.938,18.069c-0.974,2.301,0.671,6.11,3.755,4.884
	c8.327-3.309,17.453-3.046,25.848-5.469c0.849,2.309,1.659,4.633,2.42,6.971c-0.55,0.316-1.037,0.75-1.386,1.242
	c-2.481,3.505-5.659,6.359-8.495,9.53c-2.316-2.37-5.02-4.419-6.652-7.642c-1.286-2.538-4.622-1.974-6.034,0
	c-2.984,4.173-6.851,6.709-9.587,10.721c-3.036-1.996-5.965-4.072-8.737-6.338C36.119,64.494,11.3,4.069,44.372,13.439z
	 M146.291,132.202c-0.499,14.763,0.685,32.923-9.37,44.98c-12.814,15.364-53.633,11.918-70.347,7.102
	c-40.009-11.527-25.423-75.219-33.366-108.186c4.714,5.627,10.382,10.261,15.907,15.179c1.504,1.338,3.889,1.198,4.956-0.639
	c2.213-3.809,5.531-6.488,8.536-9.51c2.407,2.579,5.284,4.729,6.848,7.76c1.277,2.475,4.657,2.047,6.034,0
	c2.635-3.919,6.239-6.949,9.235-10.531c5.682,4.193,9.983,9.053,14.828,14.336c1.424,1.553,4.147,0.313,4.201-1.592
	c0.515-0.1,0.983-0.397,1.261-0.995c2.001-4.309,4.456-7.914,7.795-10.959c1.978,6.651,5.803,12.355,12.922,14.59
	c7.56,2.374,15.357-1.916,21.286-6.754C146.919,102.06,146.801,117.134,146.291,132.202z M148.123,77.535
	c-1.168-0.297-2.463-0.082-3.586,0.998c-4.056,3.902-8.873,7.874-14.687,8.536c-7.813,0.889-10.621-8.447-12.111-14.218
	c-0.102-0.396-0.278-0.718-0.481-1.006c10.529,1.303,20.916,4.798,31.383,4.79C148.47,76.934,148.292,77.233,148.123,77.535z
	 M150.13,74.044c-9.031-3.899-19.107-7.018-29.101-8.555c9.153-4.379,19.491-4.623,27.992,2.701
	c2.991,2.576,7.284-1.574,4.379-4.379c-13.236-12.775-31.636-8.682-44.946,1.683c-2.496,1.944-0.282,5.822,2.426,5.858
	c0.552,0.007,1.101,0.076,1.652,0.101c-0.007,0.006-0.017,0.009-0.024,0.015c-5.112,4.182-8.48,8.977-10.65,14.991
	c-2.238-4.057-5.43-7.291-8.986-10.252c0.465-0.216,0.908-0.533,1.257-1.093c12.999-20.855,27.26-51.024,51.725-60.194
	c7.461-2.797,16.599,0.502,20.959,6.998c4.17,6.214,1.031,15.57-1.215,22.055c-10.403-8.956-28.934-5.068-40.26-0.467
	c-3.399,1.381-3.196,6.661,0.906,6.695c12.029,0.102,21.632,4.703,31.571,10.658C155.335,65.304,152.683,69.665,150.13,74.044z"/>
</svg>
